inDegrees=yes
name=ik_OpenSim_Sub02_CSBaseline_Orientations
DataType=double
version=3
OpenSimVersion=4.4-2022-07-23-0e9fedc
endheader
time	pelvis_tilt	pelvis_list	pelvis_rotation	pelvis_tx	pelvis_ty	pelvis_tz	hip_flexion_r	hip_adduction_r	hip_rotation_r	knee_angle_r	knee_angle_r_beta	ankle_angle_r	hip_flexion_l	hip_adduction_l	hip_rotation_l	knee_angle_l	knee_angle_l_beta	ankle_angle_l
42.5	0.3591447107343795	-0.1444977840149477	-21.91404198737388	0	0.93	0	0.4826322401505358	3.379906516976702	-3.462313413769206	0.2340487983664415	0.00408492214183073	1.367618870411279	13.37463847026318	-1.842633651156972	10.99680000720155	47.45266339467245	0.8282052150776237	-9.492680620299055
42.51	0.2864372943932603	-0.1322865155208192	-21.6403152685636	0	0.93	0	0.2342914701241253	3.464644831472815	-4.150843388946608	0.1953448520430078	0.003409410844971658	1.504331369949703	13.67155730078203	-0.5809157013332703	11.11917548921836	45.69170176207903	0.7974706365875738	-8.734631490165663
42.52	0.2096662271280836	-0.1078073449063447	-21.36815634415037	0	0.93	0	-0.03575878039918441	3.56890365014575	-4.66078143880334	0.1726349601866781	0.003013048459306859	1.725200704056486	13.96012194834964	0.6985311554620173	11.18094889316006	43.82301377715501	0.7648558785581915	-7.887575881620829
42.53	0.1331398642283821	-0.1004232448245885	-21.13737216123544	0	0.93	0	-0.3524275299025442	3.741929740291678	-4.916705555398607	0.1655548093000807	0.002889476514797736	2.074022388405103	14.03930399000535	1.874420855022987	11.20416146051635	41.35831229655366	0.7218387226429187	-7.406239134175971
42.54	0.04846175096194962	-0.08787994077720843	-20.90158756111176	0	0.93	0	-0.6809378152434903	3.940839198255016	-5.054797594593873	0.1608608281084863	0.002807551087977729	2.491736289898753	14.00179029436317	2.987238216204485	11.23722968310185	38.54490464443764	0.6727354959126911	-6.996296410043101
42.55	-0.03844869719498217	-0.08335497616239894	-20.67408648735373	0	0.93	0	-1.013356117551598	4.142363818718883	-5.126418384014245	0.1540278484575006	0.002688293095346255	2.908014270299593	13.84733007615187	3.983846279157442	11.27752212803893	35.34089656711354	0.6168150057028924	-6.813419501395321
42.56	-0.1286568878057076	-0.09876717865885423	-20.44899651556266	0	0.93	0	-1.362584929394746	4.347027173442217	-5.178200622191593	0.1446647873516134	0.002524876850983102	3.332313503740923	13.50660683608653	4.919784793292608	11.31851326802595	31.70594922358073	0.5533732064216235	-6.857829344006421
42.57	-0.2264938073845788	-0.1224930820388145	-20.2232417964306	0	0.93	0	-1.729493201562506	4.561917115823678	-5.262977946665496	0.1325090464504426	0.002312719149238329	3.796603414147371	12.95853878904446	5.856276761114562	11.4447916963861	27.72374424998763	0.4838706181431301	-7.06517159551129
42.58	-0.3259560997116436	-0.1597317912369764	-20.00004640431493	0	0.93	0	-2.121946485008033	4.769478785162796	-5.389346032860246	0.1202491380850395	0.002098743382269248	4.271453628935094	12.21885639537403	6.764339555136792	11.65509499676159	23.52350151847151	0.4105625530952134	-7.377834836828852
42.59	-0.445982752152648	-0.1883428098022325	-19.77140488683541	0	0.93	0	-2.470337899470767	4.965748440832575	-5.590473263993315	0.1089258386461386	0.001901114524871202	4.711816520201715	11.39747940766675	7.611093205759958	11.95061947606358	19.29606001116505	0.3367797798572439	-7.772489056459276
42.6	-0.5669525734848205	-0.2072884051002987	-19.53563193635972	0	0.93	0	-2.794644830461058	5.153793589616903	-5.831722431601946	0.09845689231083286	0.001718396942105522	5.093809573607921	10.60698269056419	8.402383064337485	12.30459534192557	15.19821481588754	0.2652588889626213	-8.228801530771433
42.61	-0.6996512729572678	-0.2314193394328074	-19.31886518484606	0	0.93	0	-3.126727046627277	5.328004902082306	-6.031490490069847	0.09080024343057649	0.001584763209475911	5.506995356227163	9.888321160754082	9.098043342679865	12.75584597743353	11.38984296645187	0.1987902610497032	-8.610851747631491
42.62	-0.8220532816841395	-0.2584033606177401	-19.13035537177652	0	0.93	0	-3.466483459226496	5.53784068556171	-6.227323276280906	0.08648566506667456	0.001509459611190512	5.909425728956776	9.313912336212045	9.721806880528932	13.21826905955016	7.910674516839526	0.1380673163724613	-8.957520679261775
42.63	-0.9425963190926666	-0.2813047444868645	-18.97280807959315	0	0.93	0	-3.817115156881375	5.740542190721794	-6.35265678675915	0.0847405743355641	0.0014790020321866	6.333036021009947	8.816632240472089	10.2820424574273	13.75406330651867	4.767017462315454	0.08320015021746938	-9.123503118372952
42.64	-1.067441916514051	-0.2849426282021995	-18.84072559339142	0	0.93	0	-4.139113342856001	5.938696760191339	-6.441182290152433	0.08416689960431267	0.001468989519290769	6.746447374928465	8.501770177658649	10.79245827788678	14.33876563258964	2.029628480571589	0.035423699578224	-9.119077552809472
42.65	-1.172863632295234	-0.3042831105313878	-18.74424089716915	0	0.93	0	-4.485816931149254	6.149213736961682	-6.487305410957838	0.08580328853383123	0.001497549893954053	7.118582410924978	8.713593480462439	11.32761745695195	14.86226739884107	0.4142777704358205	0.007230511111926292	-8.616913149952985
42.66	-1.26429658122532	-0.3244588222621579	-18.67845841098136	0	0.93	0	-4.844219935581009	6.357861815352591	-6.512198271082948	0.08889964047151572	0.001551591430067153	7.508441625955448	9.538263101855264	11.89676537551729	15.28282434481308	0.14762309579646	0.002576509073635229	-7.337448091850574
42.67	-1.34290019837007	-0.3504807475625145	-18.64148626264261	0	0.93	0	-5.208975274850379	6.565896564632338	-6.558394395990099	0.09253631908347078	0.001615063445682627	7.847841153256627	10.41644329032716	12.36920199728102	15.86784885089637	0.08977041488879017	0.001566789310690728	-5.979704623717927
42.68	-1.4014049725929	-0.3795838897118308	-18.63095049963054	0	0.93	0	-5.600355626415714	6.771070504711136	-6.605663888976063	0.09711632202785746	0.001694999576813209	8.17689251704128	11.30909135342011	12.7711779068383	16.61593338058975	0.06586777313929591	0.001149609512237395	-4.735904537696219
42.69	-1.452958622507488	-0.4037849873564249	-18.64440388902655	0	0.93	0	-5.988308770401046	6.949208405120872	-6.685026561759162	0.102779122829448	0.001793834095685538	8.464648328245346	12.2329369836843	13.08175959999383	17.50073475988657	0.05267312900778708	0.0009193195285136184	-3.691712599273267
42.7	-1.470019714088488	-0.4426461808067641	-18.66665346178498	0	0.93	0	-6.453923877142182	7.162464614043639	-6.745026289567282	0.1128827071238885	0.001970174907876313	8.830417949941811	13.18774582000974	13.35099870321486	18.48381293950929	0.04442356905334956	0.0007753375454680102	-2.965136396793693
42.71	-1.500795421896354	-0.4403947425039882	-18.7326657343019	0	0.93	0	-6.844901876434654	7.29718891018904	-6.800461459939703	0.1216065880664697	0.00212243535387634	9.043900036917391	14.12970161668405	13.56594719201809	19.50958583850636	0.03927303019951294	0.0006854436842166664	-2.384861601310778
42.72	-1.503951526724034	-0.4470498643561632	-18.79983313543563	0	0.93	0	-7.271395102754069	7.451125887624407	-6.850429585106937	0.1327562909543696	0.002317034379889314	9.247138623372116	14.97752547262747	13.78816722213008	20.61906312261567	0.03591951348562878	0.0006269137760387271	-1.984054549426434
42.73	-1.480498222640996	-0.445466514122732	-18.86291213680482	0	0.93	0	-7.764672627760484	7.593048716144747	-6.908456198665491	0.1509925522553467	0.002635317182845391	9.516796674415323	15.73194042832434	13.94855733833192	21.72887136700948	0.03353569026285861	0.0005853082120158854	-1.775373024359782
42.74	-1.451740002695606	-0.4671575393772886	-18.97386027628388	0	0.93	0	-8.236026835297359	7.73548626674514	-6.91955961470995	0.1727132655033027	0.003014415144903774	9.660917361268579	16.30102207307243	13.96922175109293	22.80082146977865	0.03156217321790321	0.0005508638417371847	-1.541784246115446
42.75	-1.417742069206272	-0.4632245659571418	-19.09442265896779	0	0.93	0	-8.74480398126445	7.858861751944622	-6.934461818988535	0.2016109243113559	0.003518774437222242	9.86701126991122	16.69009746087501	13.95855874991726	23.89554665290272	0.03023815684614663	0.0005277553966997231	-1.404603592215816
42.76	-1.374211816248636	-0.4744434077692442	-19.24177642241156	0	0.93	0	-9.249681398684569	7.973061727809621	-6.938570589458837	0.2492891022811928	0.004350915624147721	10.02730737901047	16.75011868637497	13.8653346399443	25.03788481009147	0.02927970400587406	0.0005110272389118755	-1.065082773299058
42.77	-1.305766817478765	-0.4840808462272614	-19.40365833631497	0	0.93	0	-9.766289864838425	8.087939512140833	-6.950284389519765	0.3318592464675509	0.005792036504046124	10.20443930926902	16.51493528300827	13.74069840943452	26.10836994978203	0.02899262226774924	0.0005060167173592491	-0.5778107708498142
42.78	-1.230726951670709	-0.4857042963649208	-19.59764846008217	0	0.93	0	-10.24394406942672	8.180951203271825	-6.93914913122093	0.4818360256585775	0.008409625102466057	10.33706322491962	16.04361169120023	13.56525340599606	26.95678901322547	0.02915002491493819	0.0005087639118040514	-0.01930096600571738
42.79	-1.113605909040832	-0.4985566156323422	-19.82227815477057	0	0.93	0	-10.71161687252666	8.255514558226308	-6.985311628788725	0.7405390922963478	0.01292484540030145	10.42121887565697	15.41344364816399	13.29941103309321	27.57305646005108	0.02972418823784559	0.0005187849522329769	0.3150533633243079
42.8	-0.9771011642125478	-0.5109642953172877	-20.06832787704505	0	0.93	0	-11.07205419433788	8.323027511920985	-7.090330528988171	1.226302846567058	0.021403022299174	10.57040182749717	14.73435119077086	12.97108527342424	28.06360548112325	0.03042899238255429	0.0005310861051398463	0.3048191726770303
42.81	-0.8174924597102452	-0.5520811255143789	-20.35890874166246	0	0.93	0	-11.40198898625441	8.371914595298138	-7.208574729268121	1.848037510562061	0.03225433925966744	10.7185157106598	13.9204125834468	12.55530418537188	28.38577916835772	0.03154899626763261	0.0005506338605695911	0.1126870480625986
42.82	-0.6387384064471379	-0.5591219211215409	-20.69797700734543	0	0.93	0	-11.64453724743275	8.347981921128245	-7.389754989690747	2.606085194941974	0.04548476723921572	10.77076995584286	13.03960283593565	12.12077382459047	28.53911231373827	0.03285785167653514	0.0005734776968874771	-0.5101485900154548
42.83	-0.4520938200118364	-0.590065993363788	-21.0986047633701	0	0.93	0	-11.89964386760644	8.343896945270151	-7.55271001508763	3.44065204949906	0.06005070667924951	10.85493172658639	12.1130619717789	11.72992895899795	28.66473128539734	0.03402272066536709	0.0005938084960969717	-0.3997658086894338
42.84	-0.2580488975925491	-0.5655080232631178	-21.51295846551014	0	0.93	0	-12.06457455472648	8.247781652257579	-7.775207955659064	4.353310145469727	0.07597959539892005	10.75394210929656	11.50660718947697	11.64799945048231	28.56011770241592	0.03237425318092806	0.0005650373108814422	-0.4298283341757419
42.85	0.002913470907893096	-0.559060264050101	-21.87251799541238	0	0.93	0	-12.22444992888692	8.151687000865477	-8.102963139551708	5.416411954471308	0.09453422224990553	10.61412823224999	11.20960854108872	11.69098481693193	28.02094545727604	0.02802903698610674	0.0004891989815708307	-2.982927218210077
42.86	0.256597376712359	-0.5265240879435872	-22.21314758093485	0	0.93	0	-12.36509455428204	8.043527949748649	-8.454444874061316	6.476984375548072	0.1130447029535428	10.33404566463993	10.89213983694382	11.69710096777093	27.31226918469876	0.02431446270718534	0.0004243674300937581	-5.152328664769696
42.87	0.4691007550189913	-0.4465609319553912	-22.55647018673293	0	0.93	0	-12.4781615459107	7.89679359061006	-8.791612987802575	7.506848394036822	0.1310192209239912	9.847845304058078	10.37561273869439	11.32784866088631	27.00284345563928	0.02309642975668715	0.0004031087447097836	-5.599317410471475
42.88	0.699963591340218	-0.3323948968055329	-22.82912736921127	0	0.93	0	-12.52802562399441	7.732731107592866	-9.194661737341178	8.594846433991423	0.1500083689764438	9.200165475105392	9.642637173396649	11.04797630214036	27.14730928046383	0.02328825656625572	0.0004064567541303513	-6.280930615179735
42.89	0.9730827174163	-0.1991157946647614	-23.00714361328822	0	0.93	0	-12.5628051427883	7.551980300961517	-9.695710090444429	9.76966376002321	0.1705127994251742	8.376436747151274	8.917903985621848	10.96351552802897	27.52898853701684	0.02425137238896801	0.0004232662963147347	-6.850968444506392
